<svg id="Layer_1" data-name="Layer 1" xmlns="http://www.w3.org/2000/svg" xmlns:xlink="http://www.w3.org/1999/xlink" viewBox="0 0 149.54 293.65"><defs><style>.cls-1{fill:#fff;stroke:#231f20;}.cls-1,.cls-3{stroke-miterlimit:10;}.cls-2{fill:url(#linear-gradient);}.cls-3,.cls-4{fill:none;stroke:#b4b6ff;stroke-linecap:round;stroke-width:9px;}.cls-4{stroke-linejoin:round;}</style><linearGradient id="linear-gradient" x1="325.51" y1="240.11" x2="195.63" y2="224.33" gradientUnits="userSpaceOnUse"><stop offset="1" stop-color="#1c75bc"/><stop offset="1"/></linearGradient></defs><path class="cls-1" d="M224.3,208.4" transform="translate(-204.06 -158.14)"/><path class="cls-2" d="M277.2,159.2,204.35,298.47c-.88,1.68.39,3.79,2,3.35,46.1-12.3,94.3-12.87,144.92.07,1.63.41,2.89-1.68,2-3.36L280.43,159.2A1.76,1.76,0,0,0,277.2,159.2Z" transform="translate(-204.06 -158.14)"/><path class="cls-3" d="M213.49,315.41c43.61-14.82,86.38-15.45,128.22,0" transform="translate(-204.06 -158.14)"/><path class="cls-3" d="M226.21,338.41c35.8-12.62,71-13.12,105.34,0" transform="translate(-204.06 -158.14)"/><path class="cls-3" d="M238.93,361.41c28-10.41,55.52-10.79,82.47,0" transform="translate(-204.06 -158.14)"/><path class="cls-3" d="M251.64,384.4c20.21-8.2,40.09-8.45,59.6,0" transform="translate(-204.06 -158.14)"/><path class="cls-3" d="M264.36,407.4c12.41-6,24.66-6.12,36.72,0" transform="translate(-204.06 -158.14)"/><path class="cls-3" d="M277.08,430.4q6.92-5.68,13.84,0" transform="translate(-204.06 -158.14)"/><path class="cls-4" d="M285.73,447.28h0Z" transform="translate(-204.06 -158.14)"/></svg>