<svg id="Layer_1" data-name="Layer 1" xmlns="http://www.w3.org/2000/svg" xmlns:xlink="http://www.w3.org/1999/xlink" viewBox="0 0 360.61 92.68"><defs><style>.cls-1{fill:#fff;stroke:#231f20;}.cls-1,.cls-3{stroke-miterlimit:10;}.cls-2{fill:url(#linear-gradient);}.cls-3,.cls-4{fill:none;stroke:#b4b6ff;stroke-linecap:round;stroke-width:4px;}.cls-4{stroke-linejoin:round;}.cls-5{font-size:56.95px;font-family:MyriadPro-Regular, Myriad Pro;}.cls-6{fill:#1f3fff;}.cls-7{letter-spacing:-0.07em;}</style><linearGradient id="linear-gradient" x1="211.27" y1="469.11" x2="176.88" y2="464.93" gradientUnits="userSpaceOnUse"><stop offset="1" stop-color="#1c75bc"/><stop offset="1"/></linearGradient></defs><path class="cls-1" d="M184.59,461" transform="translate(-144.68 -448.43)"/><path class="cls-2" d="M198.6,448.7l-19.3,34.92c-.23.42.11.95.54.84a78.6,78.6,0,0,1,38.38,0,.56.56,0,0,0,.53-.85l-19.3-34.93A.47.47,0,0,0,198.6,448.7Z" transform="translate(-144.68 -448.43)"/><path class="cls-3" d="M181.72,487.87c11.55-3.72,22.88-3.88,34,0" transform="translate(-144.68 -448.43)"/><path class="cls-3" d="M185.09,493.63c9.48-3.16,18.79-3.29,27.9,0" transform="translate(-144.68 -448.43)"/><path class="cls-3" d="M188.46,499.4a30.94,30.94,0,0,1,21.84,0" transform="translate(-144.68 -448.43)"/><path class="cls-3" d="M191.83,505.17a20.64,20.64,0,0,1,15.78,0" transform="translate(-144.68 -448.43)"/><path class="cls-3" d="M195.2,510.93a11,11,0,0,1,9.72,0" transform="translate(-144.68 -448.43)"/><path class="cls-3" d="M198.56,516.7a2.72,2.72,0,0,1,3.67,0" transform="translate(-144.68 -448.43)"/><path class="cls-4" d="M200.85,520.93h0Z" transform="translate(-144.68 -448.43)"/><text class="cls-5" transform="translate(0 64.02) scale(1.19 1)"><tspan xml:space="preserve">F   </tspan><tspan class="cls-6" x="63.95" y="0">S</tspan><tspan class="cls-7" x="92.03" y="0">T</tspan><tspan x="116.06" y="0">ABLE</tspan></text></svg>